<?xml version="1.0" encoding="UTF-8"?>
<svg xmlns="http://www.w3.org/2000/svg" xmlns:xlink="http://www.w3.org/1999/xlink" width="171px" height="54px" viewBox="0 0 169 54" version="1.1">
<defs>
<clipPath id="clip1">
  <path d="M 63.117188 11.289062 L 168.746094 11.289062 L 168.746094 31.441406 L 63.117188 31.441406 Z M 63.117188 11.289062 "/>
</clipPath>
<clipPath id="clip2">
  <path d="M 63.117188 36.203125 L 168.746094 36.203125 L 168.746094 42.566406 L 63.117188 42.566406 Z M 63.117188 36.203125 "/>
</clipPath>
<clipPath id="clip3">
  <path d="M 0.046875 0 L 53.644531 0 L 53.644531 53.855469 L 0.046875 53.855469 Z M 0.046875 0 "/>
</clipPath>
<clipPath id="clip4">
  <path d="M 11.742188 12.96875 L 41.953125 12.96875 L 41.953125 40.882812 L 11.742188 40.882812 Z M 11.742188 12.96875 "/>
</clipPath>
</defs>
<g id="surface1">
<g clip-path="url(#clip1)" clip-rule="nonzero">
<path style=" stroke:none;fill-rule:nonzero;fill:rgb(91.764706%,100%,99.215686%);fill-opacity:1;" d="M 67.992188 18.546875 L 67.992188 30.125 C 67.992188 30.921875 67.53125 31.320312 66.609375 31.320312 C 65.699219 31.320312 65.246094 30.921875 65.246094 30.125 L 65.246094 18.546875 L 64.058594 18.546875 C 63.464844 18.546875 63.152344 18.15625 63.121094 17.378906 C 63.121094 16.597656 63.433594 16.210938 64.058594 16.210938 L 65.246094 16.210938 L 65.246094 15.015625 C 65.246094 14.335938 65.34375 13.761719 65.535156 13.289062 C 65.722656 12.816406 66.03125 12.457031 66.460938 12.207031 L 66.460938 12.234375 C 66.886719 11.96875 67.328125 11.761719 67.785156 11.613281 C 68.238281 11.464844 68.71875 11.390625 69.230469 11.390625 L 69.824219 11.390625 C 70.433594 11.390625 70.738281 11.777344 70.738281 12.558594 C 70.769531 13.335938 70.464844 13.726562 69.824219 13.726562 L 69.425781 13.726562 C 69.113281 13.726562 68.863281 13.753906 68.675781 13.808594 C 68.484375 13.867188 68.339844 13.957031 68.238281 14.074219 C 68.140625 14.1875 68.074219 14.328125 68.042969 14.496094 C 68.007812 14.660156 67.992188 14.84375 67.992188 15.042969 L 67.992188 16.210938 L 69.847656 16.210938 C 70.492188 16.210938 70.796875 16.597656 70.761719 17.378906 C 70.761719 18.15625 70.457031 18.546875 69.847656 18.546875 Z M 75.535156 19.863281 L 75.535156 30.125 C 75.535156 30.921875 75.082031 31.320312 74.175781 31.320312 C 73.234375 31.320312 72.765625 30.921875 72.765625 30.125 L 72.765625 19.839844 C 72.765625 18.480469 73.171875 17.535156 73.976562 17.003906 C 74.785156 16.476562 75.71875 16.210938 76.773438 16.210938 L 79.59375 16.210938 C 80.203125 16.210938 80.507812 16.597656 80.507812 17.378906 C 80.539062 18.15625 80.234375 18.546875 79.59375 18.546875 L 76.96875 18.546875 C 76.375 18.546875 75.988281 18.660156 75.808594 18.894531 C 75.625 19.125 75.535156 19.449219 75.535156 19.863281 Z M 85.328125 20.160156 L 85.328125 27.195312 C 85.328125 27.589844 85.457031 27.964844 85.710938 28.3125 C 85.96875 28.660156 86.402344 28.835938 87.011719 28.835938 L 90.101562 28.835938 C 90.714844 28.835938 91.144531 28.679688 91.398438 28.371094 C 91.65625 28.066406 91.785156 27.714844 91.785156 27.316406 L 91.785156 27.042969 C 91.785156 26.265625 92.238281 25.875 93.144531 25.875 C 94.050781 25.875 94.5 26.265625 94.5 27.042969 L 94.5 27.34375 C 94.5 28.039062 94.390625 28.609375 94.167969 29.058594 C 93.949219 29.503906 93.617188 29.894531 93.171875 30.226562 C 92.296875 30.855469 91.421875 31.171875 90.546875 31.171875 L 86.394531 31.171875 C 85.519531 31.171875 84.671875 30.855469 83.847656 30.226562 C 83.449219 29.894531 83.144531 29.476562 82.929688 28.972656 C 82.714844 28.464844 82.609375 27.882812 82.609375 27.21875 L 82.609375 20.136719 C 82.609375 18.792969 83.023438 17.800781 83.847656 17.152344 C 84.257812 16.855469 84.683594 16.617188 85.117188 16.445312 C 85.554688 16.269531 85.980469 16.183594 86.394531 16.183594 L 90.546875 16.183594 C 90.945312 16.183594 91.382812 16.261719 91.859375 16.417969 C 92.335938 16.578125 92.78125 16.789062 93.195312 17.054688 C 93.589844 17.335938 93.90625 17.726562 94.144531 18.222656 C 94.382812 18.71875 94.5 19.308594 94.5 19.988281 L 94.5 23.34375 C 94.5 23.722656 94.390625 24.0625 94.167969 24.359375 C 93.949219 24.660156 93.542969 24.808594 92.949219 24.808594 L 87.605469 24.808594 C 87.011719 24.808594 86.699219 24.417969 86.664062 23.640625 C 86.664062 22.863281 86.980469 22.472656 87.605469 22.472656 L 91.808594 22.472656 L 91.785156 20.160156 C 91.785156 19.746094 91.65625 19.371094 91.398438 19.027344 C 91.144531 18.691406 90.714844 18.519531 90.101562 18.519531 L 87.011719 18.519531 C 86.402344 18.519531 85.96875 18.691406 85.710938 19.027344 C 85.457031 19.371094 85.328125 19.746094 85.328125 20.160156 Z M 100.363281 20.160156 L 100.363281 27.195312 C 100.363281 27.589844 100.492188 27.964844 100.75 28.3125 C 101.003906 28.660156 101.433594 28.835938 102.042969 28.835938 L 105.136719 28.835938 C 105.746094 28.835938 106.179688 28.679688 106.4375 28.371094 C 106.691406 28.066406 106.816406 27.714844 106.816406 27.316406 L 106.816406 27.042969 C 106.816406 26.265625 107.269531 25.875 108.175781 25.875 C 109.085938 25.875 109.539062 26.265625 109.539062 27.042969 L 109.539062 27.34375 C 109.539062 28.039062 109.425781 28.609375 109.207031 29.058594 C 108.980469 29.503906 108.648438 29.894531 108.203125 30.226562 C 107.328125 30.855469 106.453125 31.171875 105.582031 31.171875 L 101.425781 31.171875 C 100.550781 31.171875 99.703125 30.855469 98.878906 30.226562 C 98.484375 29.894531 98.175781 29.476562 97.964844 28.972656 C 97.75 28.464844 97.640625 27.882812 97.640625 27.21875 L 97.640625 20.136719 C 97.640625 18.792969 98.054688 17.800781 98.878906 17.152344 C 99.289062 16.855469 99.714844 16.617188 100.15625 16.445312 C 100.589844 16.269531 101.011719 16.183594 101.425781 16.183594 L 105.582031 16.183594 C 105.976562 16.183594 106.414062 16.261719 106.890625 16.417969 C 107.371094 16.578125 107.816406 16.789062 108.226562 17.054688 C 108.621094 17.335938 108.941406 17.726562 109.183594 18.222656 C 109.417969 18.71875 109.539062 19.308594 109.539062 19.988281 L 109.539062 23.34375 C 109.539062 23.722656 109.425781 24.0625 109.207031 24.359375 C 108.980469 24.660156 108.574219 24.808594 107.980469 24.808594 L 102.636719 24.808594 C 102.042969 24.808594 101.730469 24.417969 101.699219 23.640625 C 101.699219 22.863281 102.011719 22.472656 102.636719 22.472656 L 106.84375 22.472656 L 106.816406 20.160156 C 106.816406 19.746094 106.691406 19.371094 106.4375 19.027344 C 106.179688 18.691406 105.746094 18.519531 105.136719 18.519531 L 102.042969 18.519531 C 101.433594 18.519531 101.003906 18.691406 100.75 19.027344 C 100.492188 19.371094 100.363281 19.746094 100.363281 20.160156 Z M 115.398438 18.546875 L 115.375 30.125 C 115.375 30.523438 115.234375 30.820312 114.953125 31.019531 C 114.675781 31.21875 114.367188 31.320312 114.039062 31.320312 C 113.132812 31.320312 112.679688 30.921875 112.679688 30.125 L 112.679688 12.480469 C 112.679688 11.6875 113.132812 11.289062 114.039062 11.289062 C 114.945312 11.289062 115.398438 11.6875 115.398438 12.480469 L 115.398438 16.210938 L 120.617188 16.210938 C 121.457031 16.210938 122.332031 16.523438 123.238281 17.152344 C 124.128906 17.785156 124.574219 18.777344 124.574219 20.136719 L 124.574219 27.542969 C 124.574219 28.917969 124.171875 29.859375 123.363281 30.375 C 122.554688 30.90625 121.632812 31.171875 120.59375 31.171875 L 117.675781 31.171875 C 117.082031 31.171875 116.769531 30.78125 116.734375 30.003906 C 116.734375 29.222656 117.046875 28.835938 117.675781 28.835938 L 120.148438 28.835938 C 120.757812 28.835938 121.195312 28.722656 121.457031 28.496094 C 121.722656 28.273438 121.855469 27.949219 121.855469 27.515625 L 121.855469 20.359375 C 121.855469 19.929688 121.722656 19.515625 121.457031 19.117188 L 121.484375 19.140625 C 121.269531 18.746094 120.832031 18.546875 120.171875 18.546875 Z M 131.574219 16.210938 L 135.53125 16.210938 C 135.960938 16.210938 136.402344 16.300781 136.851562 16.484375 C 137.308594 16.664062 137.75 16.898438 138.179688 17.179688 L 138.152344 17.179688 C 138.582031 17.492188 138.910156 17.902344 139.140625 18.40625 C 139.375 18.914062 139.488281 19.5 139.488281 20.160156 L 139.488281 27.21875 C 139.488281 28.578125 139.042969 29.578125 138.152344 30.226562 C 137.277344 30.855469 136.40625 31.171875 135.53125 31.171875 L 131.574219 31.171875 C 131.144531 31.171875 130.707031 31.09375 130.261719 30.945312 C 129.816406 30.796875 129.382812 30.558594 128.953125 30.226562 C 128.0625 29.597656 127.617188 28.59375 127.617188 27.21875 L 127.617188 20.160156 C 127.617188 19.5 127.734375 18.914062 127.964844 18.40625 C 128.195312 17.902344 128.523438 17.492188 128.953125 17.179688 L 128.929688 17.179688 C 129.339844 16.898438 129.777344 16.664062 130.238281 16.484375 C 130.699219 16.300781 131.144531 16.210938 131.574219 16.210938 Z M 132.019531 28.835938 L 135.085938 28.835938 C 135.695312 28.835938 136.128906 28.660156 136.382812 28.3125 C 136.640625 27.964844 136.769531 27.589844 136.769531 27.195312 L 136.769531 20.1875 C 136.769531 19.773438 136.640625 19.394531 136.382812 19.054688 C 136.128906 18.714844 135.695312 18.546875 135.085938 18.546875 L 132.019531 18.546875 C 131.410156 18.546875 130.976562 18.714844 130.71875 19.054688 C 130.464844 19.394531 130.335938 19.773438 130.335938 20.1875 L 130.335938 27.195312 C 130.335938 27.589844 130.464844 27.964844 130.71875 28.3125 C 130.976562 28.660156 131.410156 28.835938 132.019531 28.835938 Z M 146.5625 16.210938 L 150.519531 16.210938 C 150.949219 16.210938 151.386719 16.300781 151.839844 16.484375 C 152.296875 16.664062 152.738281 16.898438 153.164062 17.179688 L 153.140625 17.179688 C 153.570312 17.492188 153.898438 17.902344 154.128906 18.40625 C 154.359375 18.914062 154.476562 19.5 154.476562 20.160156 L 154.476562 27.21875 C 154.476562 28.578125 154.03125 29.578125 153.140625 30.226562 C 152.265625 30.855469 151.394531 31.171875 150.519531 31.171875 L 146.5625 31.171875 C 146.132812 31.171875 145.695312 31.09375 145.25 30.945312 C 144.804688 30.796875 144.371094 30.558594 143.941406 30.226562 C 143.050781 29.597656 142.605469 28.59375 142.605469 27.21875 L 142.605469 20.160156 C 142.605469 19.5 142.71875 18.914062 142.953125 18.40625 C 143.183594 17.902344 143.511719 17.492188 143.941406 17.179688 L 143.914062 17.179688 C 144.328125 16.898438 144.765625 16.664062 145.226562 16.484375 C 145.6875 16.300781 146.132812 16.210938 146.5625 16.210938 Z M 147.007812 28.835938 L 150.074219 28.835938 C 150.683594 28.835938 151.117188 28.660156 151.371094 28.3125 C 151.628906 27.964844 151.757812 27.589844 151.757812 27.195312 L 151.757812 20.1875 C 151.757812 19.773438 151.628906 19.394531 151.371094 19.054688 C 151.117188 18.714844 150.683594 18.546875 150.074219 18.546875 L 147.007812 18.546875 C 146.398438 18.546875 145.964844 18.714844 145.707031 19.054688 C 145.453125 19.394531 145.324219 19.773438 145.324219 20.1875 L 145.324219 27.195312 C 145.324219 27.589844 145.453125 27.964844 145.707031 28.3125 C 145.964844 28.660156 146.398438 28.835938 147.007812 28.835938 Z M 168.199219 18 L 160.308594 27.019531 L 160.308594 30.175781 C 160.308594 30.953125 159.855469 31.34375 158.949219 31.34375 C 158.042969 31.34375 157.585938 30.953125 157.585938 30.175781 L 157.585938 12.480469 C 157.585938 11.6875 158.042969 11.289062 158.949219 11.289062 C 159.855469 11.289062 160.308594 11.6875 160.308594 12.480469 L 160.308594 23.019531 C 160.71875 22.523438 161.179688 21.988281 161.683594 21.414062 C 162.183594 20.84375 162.6875 20.265625 163.191406 19.675781 C 163.691406 19.085938 164.191406 18.507812 164.6875 17.933594 C 165.179688 17.363281 165.640625 16.832031 166.070312 16.335938 L 166.070312 16.359375 C 166.367188 16.011719 166.664062 15.835938 166.960938 15.835938 C 167.125 15.835938 167.289062 15.875 167.445312 15.945312 C 167.601562 16.023438 167.769531 16.128906 167.949219 16.257812 L 167.925781 16.257812 C 168.320312 16.589844 168.519531 16.921875 168.519531 17.253906 C 168.519531 17.371094 168.496094 17.496094 168.445312 17.636719 C 168.394531 17.777344 168.3125 17.898438 168.199219 18 Z M 165.847656 24.335938 L 168.570312 29.503906 C 168.683594 29.71875 168.742188 29.945312 168.742188 30.175781 C 168.742188 30.605469 168.496094 30.929688 168 31.144531 C 167.671875 31.34375 167.375 31.445312 167.109375 31.445312 C 166.929688 31.445312 166.753906 31.382812 166.589844 31.257812 C 166.425781 31.132812 166.292969 30.980469 166.195312 30.796875 L 163.722656 26 C 163.574219 25.753906 163.5 25.503906 163.5 25.253906 C 163.5 24.839844 163.714844 24.492188 164.140625 24.210938 C 164.257812 24.128906 164.378906 24.054688 164.503906 23.988281 C 164.625 23.921875 164.761719 23.871094 164.910156 23.839844 C 165.089844 23.804688 165.261719 23.839844 165.429688 23.9375 C 165.59375 24.039062 165.734375 24.171875 165.847656 24.335938 Z M 165.847656 24.335938 "/>
</g>
<g clip-path="url(#clip2)" clip-rule="nonzero">
<path style=" stroke:none;fill-rule:nonzero;fill:rgb(83.921569%,90.980392%,90.196078%);fill-opacity:1;" d="M 63.121094 41.113281 L 63.121094 37.316406 C 63.121094 36.933594 63.21875 36.652344 63.410156 36.472656 C 63.605469 36.292969 63.84375 36.203125 64.128906 36.203125 C 64.214844 36.203125 64.300781 36.207031 64.382812 36.222656 L 64.320312 36.5625 C 64.238281 36.550781 64.179688 36.546875 64.140625 36.546875 C 63.71875 36.546875 63.507812 36.804688 63.507812 37.316406 L 63.507812 37.648438 L 64.292969 37.648438 L 64.128906 38.011719 L 63.507812 38.011719 L 63.507812 41.113281 Z M 65.027344 41.113281 L 65.027344 37.648438 L 65.414062 37.648438 L 65.394531 37.890625 C 65.609375 37.6875 65.890625 37.585938 66.242188 37.585938 C 66.363281 37.585938 66.535156 37.605469 66.75 37.648438 L 66.648438 38 C 66.5 37.953125 66.347656 37.929688 66.1875 37.929688 C 65.972656 37.929688 65.792969 37.96875 65.640625 38.046875 C 65.492188 38.125 65.414062 38.246094 65.414062 38.402344 L 65.414062 41.113281 Z M 69.132812 40.871094 C 68.964844 40.976562 68.777344 41.058594 68.566406 41.113281 C 68.355469 41.167969 68.144531 41.195312 67.933594 41.195312 C 67.59375 41.195312 67.324219 41.109375 67.125 40.941406 C 66.925781 40.773438 66.824219 40.523438 66.824219 40.183594 L 66.824219 38.765625 C 66.824219 38.394531 66.941406 38.101562 67.171875 37.894531 C 67.402344 37.6875 67.710938 37.585938 68.09375 37.585938 C 68.472656 37.585938 68.769531 37.6875 68.984375 37.890625 C 69.195312 38.097656 69.304688 38.382812 69.304688 38.746094 L 69.304688 39.644531 L 67.210938 39.761719 L 67.210938 40.183594 C 67.210938 40.40625 67.28125 40.574219 67.425781 40.683594 C 67.566406 40.792969 67.753906 40.847656 67.980469 40.847656 C 68.304688 40.847656 68.636719 40.757812 68.980469 40.574219 Z M 68.917969 38.699219 C 68.917969 38.414062 68.828125 38.210938 68.648438 38.09375 C 68.46875 37.976562 68.28125 37.917969 68.085938 37.917969 C 67.832031 37.917969 67.625 37.984375 67.460938 38.125 C 67.292969 38.261719 67.210938 38.480469 67.210938 38.773438 L 67.210938 39.382812 L 68.917969 39.300781 Z M 72.117188 40.871094 C 71.953125 40.976562 71.765625 41.058594 71.554688 41.113281 C 71.34375 41.167969 71.132812 41.195312 70.921875 41.195312 C 70.582031 41.195312 70.3125 41.109375 70.113281 40.941406 C 69.910156 40.773438 69.8125 40.523438 69.8125 40.183594 L 69.8125 38.765625 C 69.8125 38.394531 69.929688 38.101562 70.160156 37.894531 C 70.390625 37.6875 70.699219 37.585938 71.078125 37.585938 C 71.460938 37.585938 71.757812 37.6875 71.972656 37.890625 C 72.183594 38.097656 72.289062 38.382812 72.289062 38.746094 L 72.289062 39.644531 L 70.199219 39.761719 L 70.199219 40.183594 C 70.199219 40.40625 70.269531 40.574219 70.410156 40.683594 C 70.554688 40.792969 70.738281 40.847656 70.96875 40.847656 C 71.289062 40.847656 71.621094 40.757812 71.964844 40.574219 Z M 71.90625 38.699219 C 71.90625 38.414062 71.816406 38.210938 71.636719 38.09375 C 71.457031 37.976562 71.269531 37.917969 71.070312 37.917969 C 70.820312 37.917969 70.609375 37.984375 70.445312 38.125 C 70.28125 38.261719 70.199219 38.480469 70.199219 38.773438 L 70.199219 39.382812 L 71.90625 39.300781 Z M 77.378906 41.113281 C 76.882812 41.164062 76.523438 41.1875 76.304688 41.1875 C 75.820312 41.1875 75.4375 41.097656 75.152344 40.917969 C 74.871094 40.738281 74.726562 40.414062 74.726562 39.945312 L 74.726562 39.371094 C 74.726562 38.914062 74.886719 38.605469 75.203125 38.449219 C 75.351562 38.371094 75.546875 38.332031 75.78125 38.332031 C 75.996094 38.332031 76.214844 38.367188 76.433594 38.4375 C 76.65625 38.511719 76.839844 38.605469 76.992188 38.71875 C 76.992188 38.464844 76.917969 38.261719 76.769531 38.113281 C 76.625 37.964844 76.34375 37.890625 75.925781 37.890625 L 75.945312 37.589844 C 76.386719 37.589844 76.710938 37.660156 76.917969 37.800781 C 77.128906 37.941406 77.257812 38.109375 77.304688 38.304688 C 77.351562 38.496094 77.378906 38.746094 77.378906 39.050781 Z M 76.992188 39.015625 C 76.804688 38.929688 76.601562 38.851562 76.390625 38.789062 C 76.175781 38.722656 75.980469 38.691406 75.800781 38.691406 C 75.335938 38.691406 75.105469 38.925781 75.105469 39.390625 L 75.105469 39.992188 C 75.105469 40.292969 75.207031 40.507812 75.414062 40.644531 C 75.621094 40.78125 75.914062 40.847656 76.296875 40.847656 C 76.492188 40.847656 76.726562 40.832031 76.992188 40.792969 Z M 80.226562 41.113281 L 80.226562 38.738281 C 80.226562 38.457031 80.144531 38.253906 79.980469 38.128906 C 79.820312 38 79.609375 37.9375 79.351562 37.9375 C 79.195312 37.9375 79.039062 37.960938 78.878906 38.003906 C 78.71875 38.046875 78.574219 38.101562 78.449219 38.171875 L 78.449219 41.113281 L 78.066406 41.113281 L 78.066406 37.648438 L 78.449219 37.648438 L 78.421875 37.882812 C 78.535156 37.785156 78.671875 37.710938 78.84375 37.664062 C 79.011719 37.617188 79.191406 37.589844 79.375 37.589844 C 79.625 37.589844 79.839844 37.632812 80.019531 37.714844 C 80.203125 37.800781 80.347656 37.921875 80.449219 38.089844 C 80.554688 38.253906 80.605469 38.464844 80.605469 38.71875 L 80.605469 41.113281 Z M 81.601562 38.71875 C 81.601562 38.234375 81.796875 37.902344 82.1875 37.722656 C 82.375 37.636719 82.601562 37.589844 82.863281 37.589844 C 83.03125 37.589844 83.195312 37.613281 83.355469 37.652344 C 83.511719 37.695312 83.648438 37.753906 83.757812 37.832031 L 83.757812 36.269531 L 84.144531 36.269531 L 84.144531 41.113281 L 83.765625 41.148438 C 83.464844 41.179688 83.230469 41.195312 83.0625 41.195312 C 82.890625 41.195312 82.734375 41.179688 82.585938 41.148438 C 82.433594 41.113281 82.285156 41.0625 82.140625 40.988281 C 81.972656 40.90625 81.84375 40.78125 81.746094 40.621094 C 81.652344 40.460938 81.601562 40.261719 81.601562 40.027344 Z M 83.757812 38.171875 C 83.632812 38.101562 83.492188 38.046875 83.332031 38.003906 C 83.167969 37.960938 83.011719 37.9375 82.855469 37.9375 C 82.597656 37.9375 82.386719 38 82.226562 38.128906 C 82.0625 38.253906 81.980469 38.457031 81.980469 38.738281 L 81.980469 40.035156 C 81.980469 40.574219 82.351562 40.84375 83.089844 40.84375 C 83.265625 40.84375 83.488281 40.820312 83.757812 40.78125 Z M 89.386719 39.839844 C 89.386719 40.226562 89.28125 40.546875 89.070312 40.800781 C 88.859375 41.054688 88.542969 41.179688 88.113281 41.179688 C 87.6875 41.179688 87.363281 41.054688 87.148438 40.796875 C 86.929688 40.542969 86.820312 40.222656 86.820312 39.839844 L 86.820312 38.925781 C 86.820312 38.488281 86.929688 38.152344 87.152344 37.917969 C 87.375 37.6875 87.695312 37.570312 88.113281 37.570312 C 88.515625 37.570312 88.824219 37.691406 89.050781 37.933594 C 89.277344 38.175781 89.386719 38.507812 89.386719 38.925781 Z M 89.003906 38.925781 C 89.003906 38.582031 88.921875 38.328125 88.765625 38.164062 C 88.605469 38.003906 88.390625 37.921875 88.113281 37.921875 C 87.828125 37.921875 87.609375 38.003906 87.445312 38.164062 C 87.285156 38.328125 87.207031 38.582031 87.207031 38.925781 L 87.207031 39.910156 C 87.207031 40.183594 87.289062 40.410156 87.449219 40.578125 C 87.613281 40.75 87.835938 40.835938 88.113281 40.835938 C 88.398438 40.835938 88.617188 40.75 88.769531 40.582031 C 88.925781 40.414062 89.003906 40.191406 89.003906 39.910156 Z M 90.152344 42.566406 L 90.152344 37.648438 L 90.539062 37.648438 L 90.503906 38 C 90.628906 37.867188 90.773438 37.765625 90.941406 37.695312 C 91.109375 37.625 91.273438 37.589844 91.4375 37.589844 C 91.867188 37.589844 92.191406 37.714844 92.414062 37.964844 C 92.636719 38.214844 92.746094 38.535156 92.746094 38.933594 L 92.746094 39.894531 C 92.746094 40.316406 92.628906 40.636719 92.394531 40.859375 C 92.164062 41.082031 91.851562 41.195312 91.46875 41.195312 C 91.269531 41.195312 91.09375 41.167969 90.945312 41.113281 C 90.792969 41.058594 90.65625 40.960938 90.539062 40.820312 L 90.539062 42.414062 Z M 92.363281 38.90625 C 92.363281 38.570312 92.273438 38.324219 92.097656 38.171875 C 91.917969 38.019531 91.710938 37.945312 91.46875 37.945312 C 91.21875 37.945312 91.003906 38.019531 90.828125 38.167969 C 90.648438 38.320312 90.550781 38.554688 90.539062 38.871094 L 90.539062 39.964844 C 90.539062 40.265625 90.621094 40.484375 90.792969 40.628906 C 90.960938 40.769531 91.1875 40.84375 91.46875 40.84375 C 91.71875 40.84375 91.929688 40.765625 92.101562 40.617188 C 92.277344 40.46875 92.363281 40.25 92.363281 39.964844 Z M 95.519531 40.871094 C 95.355469 40.976562 95.167969 41.058594 94.957031 41.113281 C 94.746094 41.167969 94.535156 41.195312 94.324219 41.195312 C 93.984375 41.195312 93.714844 41.109375 93.515625 40.941406 C 93.3125 40.773438 93.214844 40.523438 93.214844 40.183594 L 93.214844 38.765625 C 93.214844 38.394531 93.332031 38.101562 93.5625 37.894531 C 93.792969 37.6875 94.101562 37.585938 94.480469 37.585938 C 94.863281 37.585938 95.160156 37.6875 95.371094 37.890625 C 95.585938 38.097656 95.691406 38.382812 95.691406 38.746094 L 95.691406 39.644531 L 93.597656 39.761719 L 93.597656 40.183594 C 93.597656 40.40625 93.671875 40.574219 93.8125 40.683594 C 93.957031 40.792969 94.140625 40.847656 94.371094 40.847656 C 94.691406 40.847656 95.023438 40.757812 95.367188 40.574219 Z M 95.308594 38.699219 C 95.308594 38.414062 95.21875 38.210938 95.039062 38.09375 C 94.859375 37.976562 94.671875 37.917969 94.472656 37.917969 C 94.222656 37.917969 94.011719 37.984375 93.847656 38.125 C 93.683594 38.261719 93.597656 38.480469 93.597656 38.773438 L 93.597656 39.382812 L 95.308594 39.300781 Z M 98.5625 41.113281 L 98.5625 38.738281 C 98.5625 38.457031 98.480469 38.253906 98.320312 38.128906 C 98.15625 38 97.945312 37.9375 97.6875 37.9375 C 97.53125 37.9375 97.375 37.960938 97.214844 38.003906 C 97.054688 38.046875 96.910156 38.101562 96.785156 38.171875 L 96.785156 41.113281 L 96.402344 41.113281 L 96.402344 37.648438 L 96.785156 37.648438 L 96.757812 37.882812 C 96.871094 37.785156 97.007812 37.710938 97.179688 37.664062 C 97.347656 37.617188 97.527344 37.589844 97.710938 37.589844 C 97.960938 37.589844 98.175781 37.632812 98.355469 37.714844 C 98.539062 37.800781 98.683594 37.921875 98.789062 38.089844 C 98.890625 38.253906 98.941406 38.464844 98.941406 38.71875 L 98.941406 41.113281 Z M 101.929688 40.234375 C 101.957031 40.441406 102.058594 40.597656 102.238281 40.699219 C 102.417969 40.804688 102.617188 40.855469 102.835938 40.855469 C 103.042969 40.855469 103.230469 40.808594 103.402344 40.714844 C 103.570312 40.621094 103.65625 40.464844 103.65625 40.253906 C 103.65625 40.117188 103.617188 40 103.535156 39.910156 C 103.457031 39.820312 103.355469 39.75 103.238281 39.695312 C 103.117188 39.640625 102.957031 39.578125 102.753906 39.515625 C 102.53125 39.441406 102.347656 39.371094 102.203125 39.308594 C 102.0625 39.242188 101.9375 39.152344 101.832031 39.03125 C 101.726562 38.914062 101.664062 38.765625 101.648438 38.585938 L 101.640625 38.503906 C 101.640625 38.351562 101.683594 38.203125 101.765625 38.058594 C 101.851562 37.914062 101.984375 37.792969 102.160156 37.703125 C 102.335938 37.609375 102.558594 37.5625 102.824219 37.5625 C 102.96875 37.5625 103.101562 37.578125 103.210938 37.609375 C 103.324219 37.640625 103.414062 37.671875 103.476562 37.703125 C 103.542969 37.734375 103.582031 37.753906 103.59375 37.765625 L 103.464844 38.082031 C 103.449219 38.074219 103.417969 38.054688 103.363281 38.027344 C 103.3125 38 103.238281 37.972656 103.140625 37.945312 C 103.042969 37.917969 102.9375 37.902344 102.824219 37.902344 C 102.605469 37.902344 102.414062 37.953125 102.257812 38.058594 C 102.101562 38.160156 102.023438 38.304688 102.023438 38.492188 C 102.023438 38.667969 102.097656 38.800781 102.238281 38.890625 C 102.382812 38.984375 102.597656 39.078125 102.894531 39.167969 C 103.140625 39.25 103.339844 39.332031 103.492188 39.402344 C 103.644531 39.476562 103.773438 39.582031 103.878906 39.71875 C 103.988281 39.855469 104.042969 40.03125 104.042969 40.246094 C 104.042969 40.523438 103.941406 40.753906 103.734375 40.9375 C 103.53125 41.125 103.230469 41.214844 102.835938 41.214844 C 102.574219 41.214844 102.351562 41.171875 102.160156 41.082031 C 101.96875 40.992188 101.824219 40.871094 101.726562 40.726562 C 101.625 40.578125 101.574219 40.414062 101.5625 40.234375 Z M 107.386719 39.839844 C 107.386719 40.226562 107.28125 40.546875 107.070312 40.800781 C 106.859375 41.054688 106.539062 41.179688 106.113281 41.179688 C 105.6875 41.179688 105.363281 41.054688 105.144531 40.796875 C 104.929688 40.542969 104.820312 40.222656 104.820312 39.839844 L 104.820312 38.925781 C 104.820312 38.488281 104.929688 38.152344 105.152344 37.917969 C 105.375 37.6875 105.695312 37.570312 106.113281 37.570312 C 106.511719 37.570312 106.824219 37.691406 107.050781 37.933594 C 107.273438 38.175781 107.386719 38.507812 107.386719 38.925781 Z M 107 38.925781 C 107 38.582031 106.921875 38.328125 106.765625 38.164062 C 106.605469 38.003906 106.386719 37.921875 106.113281 37.921875 C 105.828125 37.921875 105.605469 38.003906 105.445312 38.164062 C 105.285156 38.328125 105.203125 38.582031 105.203125 38.925781 L 105.203125 39.910156 C 105.203125 40.183594 105.285156 40.410156 105.449219 40.578125 C 105.613281 40.75 105.832031 40.835938 106.113281 40.835938 C 106.398438 40.835938 106.617188 40.75 106.769531 40.582031 C 106.925781 40.414062 107 40.191406 107 39.910156 Z M 110.078125 41.070312 C 109.792969 41.144531 109.519531 41.179688 109.25 41.179688 C 109.003906 41.179688 108.796875 41.152344 108.632812 41.097656 C 108.363281 41.007812 108.164062 40.863281 108.042969 40.671875 C 107.921875 40.480469 107.863281 40.214844 107.863281 39.867188 L 107.863281 38.980469 C 107.863281 38.527344 107.980469 38.179688 108.21875 37.941406 C 108.457031 37.703125 108.765625 37.585938 109.140625 37.585938 C 109.441406 37.585938 109.746094 37.660156 110.0625 37.804688 L 109.953125 38.089844 C 109.691406 37.984375 109.441406 37.929688 109.195312 37.929688 C 108.914062 37.929688 108.683594 38.011719 108.507812 38.175781 C 108.335938 38.339844 108.246094 38.59375 108.246094 38.941406 L 108.246094 39.945312 C 108.246094 40.261719 108.34375 40.492188 108.53125 40.636719 C 108.722656 40.777344 108.976562 40.847656 109.292969 40.847656 C 109.5 40.847656 109.734375 40.820312 109.996094 40.757812 Z M 111.019531 36.664062 C 110.960938 36.664062 110.90625 36.640625 110.859375 36.589844 C 110.8125 36.542969 110.785156 36.488281 110.785156 36.429688 C 110.785156 36.371094 110.808594 36.316406 110.855469 36.269531 C 110.902344 36.222656 110.957031 36.203125 111.019531 36.203125 C 111.085938 36.203125 111.140625 36.222656 111.183594 36.269531 C 111.226562 36.3125 111.25 36.363281 111.25 36.429688 C 111.25 36.496094 111.226562 36.550781 111.179688 36.59375 C 111.132812 36.640625 111.082031 36.664062 111.019531 36.664062 Z M 110.820312 41.113281 L 110.820312 37.648438 L 111.207031 37.648438 L 111.207031 41.113281 Z M 114.703125 41.113281 C 114.207031 41.164062 113.851562 41.1875 113.628906 41.1875 C 113.148438 41.1875 112.765625 41.097656 112.480469 40.917969 C 112.195312 40.738281 112.054688 40.414062 112.054688 39.945312 L 112.054688 39.371094 C 112.054688 38.914062 112.210938 38.605469 112.527344 38.449219 C 112.679688 38.371094 112.871094 38.332031 113.105469 38.332031 C 113.324219 38.332031 113.539062 38.367188 113.761719 38.4375 C 113.980469 38.511719 114.167969 38.605469 114.316406 38.71875 C 114.316406 38.464844 114.246094 38.261719 114.097656 38.113281 C 113.953125 37.964844 113.667969 37.890625 113.25 37.890625 L 113.273438 37.589844 C 113.710938 37.589844 114.035156 37.660156 114.246094 37.800781 C 114.453125 37.941406 114.582031 38.109375 114.628906 38.304688 C 114.679688 38.496094 114.703125 38.746094 114.703125 39.050781 Z M 114.316406 39.015625 C 114.128906 38.929688 113.929688 38.851562 113.714844 38.789062 C 113.503906 38.722656 113.304688 38.691406 113.128906 38.691406 C 112.664062 38.691406 112.433594 38.925781 112.433594 39.390625 L 112.433594 39.992188 C 112.433594 40.292969 112.535156 40.507812 112.742188 40.644531 C 112.949219 40.78125 113.242188 40.847656 113.625 40.847656 C 113.820312 40.847656 114.050781 40.832031 114.316406 40.792969 Z M 115.488281 41.113281 L 115.488281 36.269531 L 115.871094 36.269531 L 115.871094 41.113281 Z M 122.789062 41.113281 L 122.789062 38.738281 C 122.789062 38.464844 122.71875 38.261719 122.574219 38.132812 C 122.429688 38.003906 122.242188 37.9375 122.011719 37.9375 C 121.835938 37.9375 121.632812 37.976562 121.414062 38.054688 L 121.160156 38.179688 C 121.238281 38.335938 121.277344 38.515625 121.277344 38.71875 L 121.277344 41.113281 L 120.898438 41.113281 L 120.898438 38.738281 C 120.898438 38.457031 120.824219 38.253906 120.679688 38.128906 C 120.535156 38 120.347656 37.9375 120.113281 37.9375 C 119.972656 37.9375 119.824219 37.960938 119.671875 38.003906 C 119.519531 38.046875 119.382812 38.101562 119.257812 38.171875 L 119.257812 41.113281 L 118.875 41.113281 L 118.875 37.648438 L 119.257812 37.648438 L 119.226562 37.867188 C 119.527344 37.6875 119.835938 37.597656 120.15625 37.597656 C 120.320312 37.597656 120.472656 37.625 120.617188 37.679688 C 120.761719 37.738281 120.886719 37.816406 120.988281 37.921875 C 121.050781 37.886719 121.148438 37.835938 121.277344 37.773438 C 121.546875 37.648438 121.808594 37.585938 122.0625 37.585938 C 122.386719 37.585938 122.652344 37.683594 122.859375 37.886719 C 123.066406 38.085938 123.167969 38.363281 123.167969 38.71875 L 123.167969 41.113281 Z M 125.941406 40.871094 C 125.777344 40.976562 125.589844 41.058594 125.378906 41.113281 C 125.167969 41.167969 124.957031 41.195312 124.746094 41.195312 C 124.40625 41.195312 124.136719 41.109375 123.9375 40.941406 C 123.734375 40.773438 123.636719 40.523438 123.636719 40.183594 L 123.636719 38.765625 C 123.636719 38.394531 123.753906 38.101562 123.984375 37.894531 C 124.214844 37.6875 124.523438 37.585938 124.902344 37.585938 C 125.285156 37.585938 125.582031 37.6875 125.796875 37.890625 C 126.007812 38.097656 126.113281 38.382812 126.113281 38.746094 L 126.113281 39.644531 L 124.023438 39.761719 L 124.023438 40.183594 C 124.023438 40.40625 124.09375 40.574219 124.238281 40.683594 C 124.378906 40.792969 124.5625 40.847656 124.792969 40.847656 C 125.113281 40.847656 125.445312 40.757812 125.789062 40.574219 Z M 125.730469 38.699219 C 125.730469 38.414062 125.640625 38.210938 125.460938 38.09375 C 125.28125 37.976562 125.09375 37.917969 124.894531 37.917969 C 124.644531 37.917969 124.433594 37.984375 124.269531 38.125 C 124.105469 38.261719 124.023438 38.480469 124.023438 38.773438 L 124.023438 39.382812 L 125.730469 39.300781 Z M 126.917969 38.71875 C 126.917969 38.234375 127.113281 37.902344 127.503906 37.722656 C 127.691406 37.636719 127.917969 37.589844 128.179688 37.589844 C 128.347656 37.589844 128.511719 37.613281 128.671875 37.652344 C 128.832031 37.695312 128.964844 37.753906 129.074219 37.832031 L 129.074219 36.269531 L 129.460938 36.269531 L 129.460938 41.113281 L 129.082031 41.148438 C 128.78125 41.179688 128.550781 41.195312 128.378906 41.195312 C 128.210938 41.195312 128.050781 41.179688 127.902344 41.148438 C 127.75 41.113281 127.605469 41.0625 127.457031 40.988281 C 127.292969 40.90625 127.160156 40.78125 127.0625 40.621094 C 126.96875 40.460938 126.917969 40.261719 126.917969 40.027344 Z M 129.074219 38.171875 C 128.949219 38.101562 128.808594 38.046875 128.648438 38.003906 C 128.488281 37.960938 128.328125 37.9375 128.171875 37.9375 C 127.914062 37.9375 127.707031 38 127.542969 38.128906 C 127.378906 38.253906 127.296875 38.457031 127.296875 38.738281 L 127.296875 40.035156 C 127.296875 40.574219 127.667969 40.84375 128.40625 40.84375 C 128.582031 40.84375 128.804688 40.820312 129.074219 40.78125 Z M 130.457031 36.664062 C 130.398438 36.664062 130.34375 36.640625 130.296875 36.589844 C 130.246094 36.542969 130.222656 36.488281 130.222656 36.429688 C 130.222656 36.371094 130.246094 36.316406 130.292969 36.269531 C 130.339844 36.222656 130.394531 36.203125 130.457031 36.203125 C 130.523438 36.203125 130.574219 36.222656 130.617188 36.269531 C 130.664062 36.3125 130.683594 36.363281 130.683594 36.429688 C 130.683594 36.496094 130.664062 36.550781 130.617188 36.59375 C 130.570312 36.640625 130.519531 36.664062 130.457031 36.664062 Z M 130.257812 41.113281 L 130.257812 37.648438 L 130.644531 37.648438 L 130.644531 41.113281 Z M 134.140625 41.113281 C 133.644531 41.164062 133.289062 41.1875 133.066406 41.1875 C 132.585938 41.1875 132.203125 41.097656 131.917969 40.917969 C 131.632812 40.738281 131.492188 40.414062 131.492188 39.945312 L 131.492188 39.371094 C 131.492188 38.914062 131.648438 38.605469 131.964844 38.449219 C 132.117188 38.371094 132.308594 38.332031 132.542969 38.332031 C 132.757812 38.332031 132.976562 38.367188 133.199219 38.4375 C 133.417969 38.511719 133.605469 38.605469 133.753906 38.71875 C 133.753906 38.464844 133.683594 38.261719 133.535156 38.113281 C 133.386719 37.964844 133.105469 37.890625 132.6875 37.890625 L 132.710938 37.589844 C 133.148438 37.589844 133.472656 37.660156 133.683594 37.800781 C 133.890625 37.941406 134.019531 38.109375 134.066406 38.304688 C 134.117188 38.496094 134.140625 38.746094 134.140625 39.050781 Z M 133.753906 39.015625 C 133.566406 38.929688 133.367188 38.851562 133.152344 38.789062 C 132.9375 38.722656 132.742188 38.691406 132.5625 38.691406 C 132.101562 38.691406 131.871094 38.925781 131.871094 39.390625 L 131.871094 39.992188 C 131.871094 40.292969 131.972656 40.507812 132.179688 40.644531 C 132.386719 40.78125 132.679688 40.847656 133.058594 40.847656 C 133.257812 40.847656 133.488281 40.832031 133.753906 40.792969 Z M 136.839844 41.113281 L 136.839844 37.316406 C 136.839844 36.933594 136.933594 36.652344 137.128906 36.472656 C 137.320312 36.292969 137.558594 36.203125 137.84375 36.203125 C 137.929688 36.203125 138.015625 36.207031 138.097656 36.222656 L 138.035156 36.5625 C 137.953125 36.550781 137.894531 36.546875 137.855469 36.546875 C 137.433594 36.546875 137.222656 36.804688 137.222656 37.316406 L 137.222656 37.648438 L 138.007812 37.648438 L 137.84375 38.011719 L 137.222656 38.011719 L 137.222656 41.113281 Z M 141.097656 39.839844 C 141.097656 40.226562 140.992188 40.546875 140.78125 40.800781 C 140.570312 41.054688 140.253906 41.179688 139.824219 41.179688 C 139.398438 41.179688 139.074219 41.054688 138.859375 40.796875 C 138.640625 40.542969 138.53125 40.222656 138.53125 39.839844 L 138.53125 38.925781 C 138.53125 38.488281 138.640625 38.152344 138.863281 37.917969 C 139.085938 37.6875 139.40625 37.570312 139.824219 37.570312 C 140.226562 37.570312 140.535156 37.691406 140.761719 37.933594 C 140.988281 38.175781 141.097656 38.507812 141.097656 38.925781 Z M 140.714844 38.925781 C 140.714844 38.582031 140.632812 38.328125 140.476562 38.164062 C 140.316406 38.003906 140.101562 37.921875 139.824219 37.921875 C 139.539062 37.921875 139.316406 38.003906 139.15625 38.164062 C 138.996094 38.328125 138.917969 38.582031 138.917969 38.925781 L 138.917969 39.910156 C 138.917969 40.183594 138.996094 40.410156 139.160156 40.578125 C 139.324219 40.75 139.546875 40.835938 139.824219 40.835938 C 140.109375 40.835938 140.328125 40.75 140.480469 40.582031 C 140.636719 40.414062 140.714844 40.191406 140.714844 39.910156 Z M 141.746094 41.113281 L 141.746094 37.648438 L 142.132812 37.648438 L 142.109375 37.890625 C 142.328125 37.6875 142.609375 37.585938 142.957031 37.585938 C 143.082031 37.585938 143.25 37.605469 143.46875 37.648438 L 143.363281 38 C 143.21875 37.953125 143.0625 37.929688 142.902344 37.929688 C 142.691406 37.929688 142.511719 37.96875 142.359375 38.046875 C 142.207031 38.125 142.132812 38.246094 142.132812 38.402344 L 142.132812 41.113281 Z M 148.078125 40.871094 C 147.914062 40.976562 147.722656 41.058594 147.511719 41.113281 C 147.300781 41.167969 147.089844 41.195312 146.878906 41.195312 C 146.539062 41.195312 146.269531 41.109375 146.070312 40.941406 C 145.871094 40.773438 145.773438 40.523438 145.773438 40.183594 L 145.773438 38.765625 C 145.773438 38.394531 145.886719 38.101562 146.121094 37.894531 C 146.351562 37.6875 146.65625 37.585938 147.039062 37.585938 C 147.417969 37.585938 147.714844 37.6875 147.929688 37.890625 C 148.144531 38.097656 148.25 38.382812 148.25 38.746094 L 148.25 39.644531 L 146.15625 39.761719 L 146.15625 40.183594 C 146.15625 40.40625 146.226562 40.574219 146.371094 40.683594 C 146.511719 40.792969 146.699219 40.847656 146.929688 40.847656 C 147.25 40.847656 147.582031 40.757812 147.925781 40.574219 Z M 147.863281 38.699219 C 147.863281 38.414062 147.773438 38.210938 147.597656 38.09375 C 147.417969 37.976562 147.230469 37.917969 147.03125 37.917969 C 146.777344 37.917969 146.570312 37.984375 146.40625 38.125 C 146.238281 38.261719 146.15625 38.480469 146.15625 38.773438 L 146.15625 39.382812 L 147.863281 39.300781 Z M 149.449219 41.113281 L 148.394531 37.648438 L 148.800781 37.648438 L 149.714844 40.710938 L 150.636719 37.648438 L 151.042969 37.648438 L 149.976562 41.113281 Z M 153.503906 40.871094 C 153.335938 40.976562 153.148438 41.058594 152.9375 41.113281 C 152.726562 41.167969 152.515625 41.195312 152.304688 41.195312 C 151.964844 41.195312 151.695312 41.109375 151.496094 40.941406 C 151.296875 40.773438 151.195312 40.523438 151.195312 40.183594 L 151.195312 38.765625 C 151.195312 38.394531 151.3125 38.101562 151.542969 37.894531 C 151.773438 37.6875 152.082031 37.585938 152.460938 37.585938 C 152.84375 37.585938 153.140625 37.6875 153.351562 37.890625 C 153.566406 38.097656 153.675781 38.382812 153.675781 38.746094 L 153.675781 39.644531 L 151.582031 39.761719 L 151.582031 40.183594 C 151.582031 40.40625 151.652344 40.574219 151.796875 40.683594 C 151.9375 40.792969 152.125 40.847656 152.351562 40.847656 C 152.671875 40.847656 153.007812 40.757812 153.351562 40.574219 Z M 153.289062 38.699219 C 153.289062 38.414062 153.199219 38.210938 153.019531 38.09375 C 152.839844 37.976562 152.652344 37.917969 152.457031 37.917969 C 152.203125 37.917969 151.996094 37.984375 151.828125 38.125 C 151.664062 38.261719 151.582031 38.480469 151.582031 38.773438 L 151.582031 39.382812 L 153.289062 39.300781 Z M 154.359375 41.113281 L 154.359375 37.648438 L 154.746094 37.648438 L 154.726562 37.890625 C 154.941406 37.6875 155.222656 37.585938 155.574219 37.585938 C 155.695312 37.585938 155.867188 37.605469 156.082031 37.648438 L 155.980469 38 C 155.832031 37.953125 155.679688 37.929688 155.519531 37.929688 C 155.304688 37.929688 155.125 37.96875 154.972656 38.046875 C 154.824219 38.125 154.746094 38.246094 154.746094 38.402344 L 154.746094 41.113281 Z M 158.121094 42.265625 C 158.425781 42.152344 158.582031 41.914062 158.582031 41.546875 L 158.582031 40.773438 C 158.492188 40.921875 158.363281 41.027344 158.1875 41.09375 C 158.015625 41.160156 157.824219 41.195312 157.625 41.195312 C 157.21875 41.195312 156.910156 41.085938 156.691406 40.867188 C 156.472656 40.648438 156.363281 40.324219 156.363281 39.894531 L 156.363281 37.648438 L 156.734375 37.648438 L 156.734375 39.964844 C 156.734375 40.257812 156.816406 40.480469 156.976562 40.625 C 157.136719 40.769531 157.351562 40.84375 157.625 40.84375 C 157.910156 40.84375 158.136719 40.769531 158.3125 40.628906 C 158.488281 40.484375 158.574219 40.265625 158.574219 39.964844 L 158.574219 38.601562 C 158.574219 38.378906 158.582031 38.214844 158.59375 38.105469 C 158.609375 38 158.652344 37.898438 158.722656 37.800781 C 158.792969 37.707031 158.910156 37.636719 159.078125 37.585938 L 159.179688 37.847656 C 159.023438 37.917969 158.945312 38.078125 158.945312 38.332031 L 158.945312 41.535156 C 158.945312 41.816406 158.890625 42.035156 158.78125 42.199219 C 158.671875 42.359375 158.484375 42.480469 158.222656 42.566406 Z M 162.351562 39.839844 C 162.351562 40.226562 162.246094 40.546875 162.035156 40.800781 C 161.824219 41.054688 161.507812 41.179688 161.078125 41.179688 C 160.652344 41.179688 160.332031 41.054688 160.113281 40.796875 C 159.894531 40.542969 159.785156 40.222656 159.785156 39.839844 L 159.785156 38.925781 C 159.785156 38.488281 159.898438 38.152344 160.117188 37.917969 C 160.34375 37.6875 160.664062 37.570312 161.078125 37.570312 C 161.480469 37.570312 161.792969 37.691406 162.015625 37.933594 C 162.242188 38.175781 162.351562 38.507812 162.351562 38.925781 Z M 161.96875 38.925781 C 161.96875 38.582031 161.886719 38.328125 161.730469 38.164062 C 161.570312 38.003906 161.355469 37.921875 161.078125 37.921875 C 160.796875 37.921875 160.574219 38.003906 160.410156 38.164062 C 160.25 38.328125 160.171875 38.582031 160.171875 38.925781 L 160.171875 39.910156 C 160.171875 40.183594 160.253906 40.410156 160.414062 40.578125 C 160.578125 40.75 160.800781 40.835938 161.078125 40.835938 C 161.363281 40.835938 161.582031 40.75 161.738281 40.582031 C 161.890625 40.414062 161.96875 40.191406 161.96875 39.910156 Z M 165.183594 41.113281 L 165.183594 38.738281 C 165.183594 38.457031 165.101562 38.253906 164.9375 38.128906 C 164.773438 38 164.566406 37.9375 164.308594 37.9375 C 164.152344 37.9375 163.992188 37.960938 163.832031 38.003906 C 163.671875 38.046875 163.53125 38.101562 163.40625 38.171875 L 163.40625 41.113281 L 163.019531 41.113281 L 163.019531 37.648438 L 163.40625 37.648438 L 163.378906 37.882812 C 163.488281 37.785156 163.628906 37.710938 163.800781 37.664062 C 163.96875 37.617188 164.144531 37.589844 164.328125 37.589844 C 164.582031 37.589844 164.796875 37.632812 164.976562 37.714844 C 165.160156 37.800781 165.304688 37.921875 165.40625 38.089844 C 165.507812 38.253906 165.5625 38.464844 165.5625 38.71875 L 165.5625 41.113281 Z M 168.566406 40.871094 C 168.402344 40.976562 168.214844 41.058594 168.003906 41.113281 C 167.792969 41.167969 167.582031 41.195312 167.371094 41.195312 C 167.03125 41.195312 166.761719 41.109375 166.5625 40.941406 C 166.363281 40.773438 166.261719 40.523438 166.261719 40.183594 L 166.261719 38.765625 C 166.261719 38.394531 166.378906 38.101562 166.609375 37.894531 C 166.839844 37.6875 167.148438 37.585938 167.527344 37.585938 C 167.910156 37.585938 168.207031 37.6875 168.421875 37.890625 C 168.632812 38.097656 168.738281 38.382812 168.738281 38.746094 L 168.738281 39.644531 L 166.648438 39.761719 L 166.648438 40.183594 C 166.648438 40.40625 166.71875 40.574219 166.859375 40.683594 C 167.003906 40.792969 167.1875 40.847656 167.417969 40.847656 C 167.738281 40.847656 168.074219 40.757812 168.417969 40.574219 Z M 168.355469 38.699219 C 168.355469 38.414062 168.265625 38.210938 168.085938 38.09375 C 167.90625 37.976562 167.71875 37.917969 167.523438 37.917969 C 167.269531 37.917969 167.058594 37.984375 166.894531 38.125 C 166.730469 38.261719 166.648438 38.480469 166.648438 38.773438 L 166.648438 39.382812 L 168.355469 39.300781 Z M 168.355469 38.699219 "/>
</g>
<g clip-path="url(#clip3)" clip-rule="nonzero">
<path style="fill-rule:nonzero;fill:rgb(91.764706%,100%,99.215686%);fill-opacity:1;stroke-width:1;stroke-linecap:butt;stroke-linejoin:miter;stroke:rgb(100%,100%,100%);stroke-opacity:1;stroke-miterlimit:4;" d="M -0.00506304 100.337553 C -0.00506304 44.921179 44.927001 0.000000000000031059 100.346139 0.000000000000031059 C 155.765278 0.000000000000031059 200.682716 44.921179 200.682716 100.337553 C 200.682716 155.753927 155.765278 200.689662 100.346139 200.689662 C 44.927001 200.689662 -0.00506304 155.753927 -0.00506304 100.337553 Z M 100.346139 193.90636 C 152.020939 193.90636 193.910728 152.012921 193.910728 100.337553 C 193.910728 48.662185 152.020939 6.768745 100.346139 6.768745 C 48.67134 6.768745 6.766925 48.662185 6.766925 100.337553 C 6.766925 152.012921 48.67134 193.90636 100.346139 193.90636 Z M 100.346139 193.90636 " transform="matrix(0.26707,0,0,0.268352,0.0482272,-0.000000000000008335)"/>
<path style=" stroke:none;fill-rule:nonzero;fill:rgb(91.764706%,100%,99.215686%);fill-opacity:1;" d="M 53.378906 26.925781 C 53.378906 12.203125 41.5 0.269531 26.847656 0.269531 C 12.195312 0.269531 0.316406 12.203125 0.316406 26.925781 C 0.316406 41.648438 12.195312 53.585938 26.847656 53.585938 C 41.5 53.585938 53.378906 41.648438 53.378906 26.925781 Z M 53.378906 26.925781 "/>
</g>
<g clip-path="url(#clip4)" clip-rule="nonzero">
<path style=" stroke:none;fill-rule:nonzero;fill:rgb(30.980392%,81.960784%,77.254902%);fill-opacity:1;" d="M 26.847656 12.96875 C 23.550781 12.96875 20.898438 15.636719 20.898438 18.945312 C 20.898438 20.667969 21.609375 22.214844 22.765625 23.308594 L 19.378906 29.152344 C 18.847656 28.996094 18.273438 28.890625 17.6875 28.890625 C 14.394531 28.890625 11.742188 31.554688 11.742188 34.867188 C 11.742188 38.175781 14.394531 40.882812 17.6875 40.882812 C 20.507812 40.882812 22.882812 38.902344 23.503906 36.261719 L 30.1875 36.261719 C 30.8125 38.902344 33.1875 40.882812 36.007812 40.882812 C 39.300781 40.882812 41.953125 38.175781 41.953125 34.867188 C 41.953125 31.554688 39.300781 28.890625 36.007812 28.890625 C 35.421875 28.890625 34.847656 28.996094 34.3125 29.152344 L 30.925781 23.261719 C 32.070312 22.171875 32.792969 20.65625 32.792969 18.945312 C 32.792969 15.636719 30.140625 12.96875 26.847656 12.96875 M 26.847656 15.761719 C 27.6875 15.757812 28.496094 16.09375 29.089844 16.691406 C 29.6875 17.289062 30.019531 18.101562 30.015625 18.945312 C 30.019531 19.789062 29.6875 20.601562 29.089844 21.199219 C 28.496094 21.796875 27.6875 22.132812 26.847656 22.128906 C 26.003906 22.132812 25.199219 21.796875 24.601562 21.199219 C 24.007812 20.601562 23.675781 19.789062 23.679688 18.945312 C 23.675781 18.101562 24.007812 17.289062 24.601562 16.691406 C 25.199219 16.09375 26.003906 15.757812 26.847656 15.761719 M 25.152344 24.703125 C 25.6875 24.859375 26.261719 24.921875 26.847656 24.921875 C 27.4375 24.921875 28 24.863281 28.539062 24.703125 L 31.882812 30.546875 C 31.082031 31.320312 30.507812 32.351562 30.234375 33.46875 L 23.460938 33.46875 C 23.183594 32.339844 22.582031 31.324219 21.769531 30.546875 Z M 17.6875 31.679688 C 18.527344 31.679688 19.335938 32.011719 19.933594 32.609375 C 20.527344 33.207031 20.859375 34.019531 20.855469 34.867188 C 20.855469 36.632812 19.449219 38.09375 17.6875 38.09375 C 15.925781 38.09375 14.519531 36.632812 14.519531 34.867188 C 14.515625 34.019531 14.847656 33.207031 15.441406 32.609375 C 16.039062 32.011719 16.847656 31.679688 17.6875 31.679688 M 36.007812 31.679688 C 36.847656 31.679688 37.65625 32.011719 38.25 32.609375 C 38.84375 33.207031 39.179688 34.019531 39.175781 34.867188 C 39.175781 36.632812 37.765625 38.09375 36.007812 38.09375 C 34.246094 38.09375 32.792969 36.632812 32.792969 34.867188 C 32.792969 33.097656 34.246094 31.679688 36.007812 31.679688 "/>
</g>
</g>
</svg>
